<svg xmlns="http://www.w3.org/2000/svg" viewBox="0 0 100 100">
  <rect width="100" height="100" rx="16" fill="#2A4494"/>
  <path d="M 38 27 Q -12 50 38 73 Q 16 50 38 27 Z" fill="#FFFFFF"/>
  <path d="M 62 27 Q 112 50 62 73 Q 84 50 62 27 Z" fill="#FFFFFF"/>
  <polygon points="50,30 52.47,42.39 61.76,33.82 56.47,45.3 69.02,43.82 58,50 69.02,56.18 56.47,54.7 61.76,66.18 52.47,57.61 50,70 47.53,57.61 38.24,66.18 43.53,54.7 30.98,56.18 42,50 30.98,43.82 43.53,45.3 38.24,33.82 47.53,42.39" fill="#FFFFFF"/>
</svg>