<svg viewBox="0 0 660 240" role="img" xmlns="http://www.w3.org/2000/svg">
<defs><marker id="dgmArrow" markerWidth="8" markerHeight="8" refX="6" refY="3" orient="auto"><path d="M0,0 L6,3 L0,6" class="dgm-arrow"/></marker></defs>
<rect x="0" y="0" width="660" height="240" rx="0" class="dgm-paper"/><text x="0" y="30" class="dgm-title" text-anchor="start">Tag coverage climbing over a quarter</text><line x1="50" y1="200" x2="630" y2="200" class="dgm-ink-s"/><line x1="50" y1="50" x2="50" y2="200" class="dgm-ink-s"/><polyline points="50,137 166,123.5 282,105.5 398,89 514,77.00000000000001 630,68" class="dgm-blue-s" stroke-width="2.5"/><circle cx="50" cy="137" r="3.5" class="dgm-blue"/><text x="50" y="127" class="dgm-label-sm" text-anchor="middle">42%</text><circle cx="166" cy="123.5" r="3.5" class="dgm-blue"/><text x="166" y="113.5" class="dgm-label-sm" text-anchor="middle">51%</text><circle cx="282" cy="105.5" r="3.5" class="dgm-blue"/><text x="282" y="95.5" class="dgm-label-sm" text-anchor="middle">63%</text><circle cx="398" cy="89" r="3.5" class="dgm-blue"/><text x="398" y="79" class="dgm-label-sm" text-anchor="middle">74%</text><circle cx="514" cy="77.00000000000001" r="3.5" class="dgm-blue"/><text x="514" y="67.00000000000001" class="dgm-label-sm" text-anchor="middle">82%</text><circle cx="630" cy="68" r="3.5" class="dgm-blue"/><text x="630" y="58" class="dgm-label-sm" text-anchor="middle">88%</text>
</svg>