<svg viewBox="0 0 660 242" role="img" xmlns="http://www.w3.org/2000/svg">
<defs><marker id="dgmArrow" markerWidth="8" markerHeight="8" refX="6" refY="3" orient="auto"><path d="M0,0 L6,3 L0,6" class="dgm-arrow"/></marker></defs>
<rect x="0" y="0" width="660" height="242" rx="0" class="dgm-paper"/><text x="0" y="30" class="dgm-title" text-anchor="start">FinOps capability maturity</text><text x="231.66666666666669" y="62" class="dgm-label-sm" text-anchor="middle">Inform</text><text x="395.00000000000006" y="62" class="dgm-label-sm" text-anchor="middle">Optimize</text><text x="558.3333333333334" y="62" class="dgm-label-sm" text-anchor="middle">Operate</text><text x="140" y="91" class="dgm-label" text-anchor="end">Visibility</text><rect x="151" y="70" width="161.33333333333334" height="34" class="dgm-bar" fill-opacity="0.9500000000000001"/><text x="231.66666666666669" y="91" class="dgm-label-sm" text-anchor="middle">H</text><rect x="314.33333333333337" y="70" width="161.33333333333334" height="34" class="dgm-bar" fill-opacity="0.6833333333333333"/><text x="395.00000000000006" y="91" class="dgm-label-sm" text-anchor="middle">M</text><rect x="477.6666666666667" y="70" width="161.33333333333334" height="34" class="dgm-bar" fill-opacity="0.41666666666666663"/><text x="558.3333333333334" y="91" class="dgm-label-sm" text-anchor="middle">L</text><text x="140" y="129" class="dgm-label" text-anchor="end">Allocation</text><rect x="151" y="108" width="161.33333333333334" height="34" class="dgm-bar" fill-opacity="0.6833333333333333"/><text x="231.66666666666669" y="129" class="dgm-label-sm" text-anchor="middle">M</text><rect x="314.33333333333337" y="108" width="161.33333333333334" height="34" class="dgm-bar" fill-opacity="0.6833333333333333"/><text x="395.00000000000006" y="129" class="dgm-label-sm" text-anchor="middle">M</text><rect x="477.6666666666667" y="108" width="161.33333333333334" height="34" class="dgm-bar" fill-opacity="0.41666666666666663"/><text x="558.3333333333334" y="129" class="dgm-label-sm" text-anchor="middle">L</text><text x="140" y="167" class="dgm-label" text-anchor="end">Rate optimization</text><rect x="151" y="146" width="161.33333333333334" height="34" class="dgm-bar" fill-opacity="0.41666666666666663"/><text x="231.66666666666669" y="167" class="dgm-label-sm" text-anchor="middle">L</text><rect x="314.33333333333337" y="146" width="161.33333333333334" height="34" class="dgm-bar" fill-opacity="0.9500000000000001"/><text x="395.00000000000006" y="167" class="dgm-label-sm" text-anchor="middle">H</text><rect x="477.6666666666667" y="146" width="161.33333333333334" height="34" class="dgm-bar" fill-opacity="0.6833333333333333"/><text x="558.3333333333334" y="167" class="dgm-label-sm" text-anchor="middle">M</text><text x="140" y="205" class="dgm-label" text-anchor="end">Governance</text><rect x="151" y="184" width="161.33333333333334" height="34" class="dgm-bar" fill-opacity="0.41666666666666663"/><text x="231.66666666666669" y="205" class="dgm-label-sm" text-anchor="middle">L</text><rect x="314.33333333333337" y="184" width="161.33333333333334" height="34" class="dgm-bar" fill-opacity="0.41666666666666663"/><text x="395.00000000000006" y="205" class="dgm-label-sm" text-anchor="middle">L</text><rect x="477.6666666666667" y="184" width="161.33333333333334" height="34" class="dgm-bar" fill-opacity="0.9500000000000001"/><text x="558.3333333333334" y="205" class="dgm-label-sm" text-anchor="middle">H</text>
</svg>