<svg viewBox="0 0 660 340" role="img" xmlns="http://www.w3.org/2000/svg">
<defs><marker id="dgmArrow" markerWidth="8" markerHeight="8" refX="6" refY="3" orient="auto"><path d="M0,0 L6,3 L0,6" class="dgm-arrow"/></marker></defs>
<rect x="0" y="0" width="660" height="340" rx="0" class="dgm-paper"/><text x="0" y="30" class="dgm-title" text-anchor="start">Which FinOps phase are you in?</text><rect x="240" y="52" width="180" height="44" rx="0" class="dgm-card-blue"/><text x="330" y="78" class="dgm-title" text-anchor="middle">Can you see per-team cost?</text><line x1="330" y1="96" x2="110" y2="196" class="dgm-arrow" marker-end="url(#dgmArrow)"/><text x="220" y="148" class="dgm-label-sm" text-anchor="middle">No</text><rect x="20" y="200" width="180" height="64" rx="0" class="dgm-card"/><text x="110" y="226" class="dgm-title" text-anchor="middle">Inform</text><text x="110" y="246" class="dgm-label-sm" text-anchor="middle">Build visibility first</text><line x1="330" y1="96" x2="330" y2="196" class="dgm-arrow" marker-end="url(#dgmArrow)"/><text x="330" y="148" class="dgm-label-sm" text-anchor="middle">Yes</text><rect x="240" y="200" width="180" height="64" rx="0" class="dgm-card"/><text x="330" y="226" class="dgm-title" text-anchor="middle">Optimize</text><text x="330" y="246" class="dgm-label-sm" text-anchor="middle">Act on the biggest levers</text><line x1="330" y1="96" x2="550" y2="196" class="dgm-arrow" marker-end="url(#dgmArrow)"/><text x="440" y="148" class="dgm-label-sm" text-anchor="middle">Doing both</text><rect x="460" y="200" width="180" height="64" rx="0" class="dgm-card"/><text x="550" y="226" class="dgm-title" text-anchor="middle">Operate</text><text x="550" y="246" class="dgm-label-sm" text-anchor="middle">Make it a habit</text>
</svg>