<svg viewBox="0 0 660 360" role="img" xmlns="http://www.w3.org/2000/svg">
<defs><marker id="dgmArrow" markerWidth="8" markerHeight="8" refX="6" refY="3" orient="auto"><path d="M0,0 L6,3 L0,6" class="dgm-arrow"/></marker></defs>
<rect x="0" y="0" width="660" height="360" rx="0" class="dgm-paper"/><text x="0" y="30" class="dgm-title" text-anchor="start">From rack rate to what you actually pay</text><rect x="40" y="56" width="77.33333333333334" height="244" rx="0" class="dgm-bar"/><text x="78.66666666666667" y="50" class="dgm-num" text-anchor="middle">$1,00,000</text><text x="78.66666666666667" y="330" class="dgm-label-sm" text-anchor="middle">Rack</text><rect x="136.66666666666669" y="56" width="77.33333333333334" height="29.28" rx="0" class="dgm-bar-2"/><text x="175.33333333333337" y="50" class="dgm-label-sm" text-anchor="middle">-$12,000</text><text x="175.33333333333337" y="330" class="dgm-label-sm" text-anchor="middle">EDP/PPA</text><rect x="233.33333333333334" y="85.28" width="77.33333333333334" height="43.920000000000016" rx="0" class="dgm-bar-2"/><text x="272" y="79.28" class="dgm-label-sm" text-anchor="middle">-$18,000</text><text x="272" y="330" class="dgm-label-sm" text-anchor="middle">RI/SP</text><rect x="330" y="129.20000000000002" width="77.33333333333334" height="14.639999999999986" rx="0" class="dgm-bar-2"/><text x="368.6666666666667" y="123.20000000000002" class="dgm-label-sm" text-anchor="middle">-$6,000</text><text x="368.6666666666667" y="330" class="dgm-label-sm" text-anchor="middle">Credits</text><rect x="426.6666666666667" y="143.84" width="77.33333333333334" height="21.960000000000008" rx="0" class="dgm-bar-2"/><text x="465.33333333333337" y="137.84" class="dgm-label-sm" text-anchor="middle">-$9,000</text><text x="465.33333333333337" y="330" class="dgm-label-sm" text-anchor="middle">Spot</text><rect x="523.3333333333334" y="165.8" width="77.33333333333334" height="134.2" rx="0" class="dgm-bar"/><text x="562" y="159.8" class="dgm-num" text-anchor="middle">$55,000</text><text x="562" y="330" class="dgm-label-sm" text-anchor="middle">Billed</text>
</svg>