<svg viewBox="0 0 660 426" role="img" xmlns="http://www.w3.org/2000/svg">
<defs><marker id="dgmArrow" markerWidth="8" markerHeight="8" refX="6" refY="3" orient="auto"><path d="M0,0 L6,3 L0,6" class="dgm-arrow"/></marker></defs>
<rect x="0" y="0" width="660" height="426" rx="0" class="dgm-paper"/><text x="0" y="30" class="dgm-title" text-anchor="start">AWS monthly spend by service</text><text x="168" y="75" class="dgm-label" text-anchor="end">EC2</text><rect x="180" y="54" width="390" height="34" rx="0" class="dgm-bar"/><text x="578" y="75" class="dgm-num" text-anchor="start">$48,000</text><text x="168" y="119" class="dgm-label" text-anchor="end">RDS</text><rect x="180" y="98" width="150.3125" height="34" rx="0" class="dgm-bar-2"/><text x="338.3125" y="119" class="dgm-num" text-anchor="start">$18,500</text><text x="168" y="163" class="dgm-label" text-anchor="end">S3</text><rect x="180" y="142" width="97.5" height="34" rx="0" class="dgm-bar-2"/><text x="285.5" y="163" class="dgm-num" text-anchor="start">$12,000</text><text x="168" y="207" class="dgm-label" text-anchor="end">Data transfer</text><rect x="180" y="186" width="67.4375" height="34" rx="0" class="dgm-bar-2"/><text x="255.4375" y="207" class="dgm-num" text-anchor="start">$8,300</text><text x="168" y="251" class="dgm-label" text-anchor="end">EKS</text><rect x="180" y="230" width="52" height="34" rx="0" class="dgm-bar-2"/><text x="240" y="251" class="dgm-num" text-anchor="start">$6,400</text><text x="168" y="295" class="dgm-label" text-anchor="end">Lambda</text><rect x="180" y="274" width="26" height="34" rx="0" class="dgm-bar-2"/><text x="214" y="295" class="dgm-num" text-anchor="start">$3,200</text><text x="168" y="339" class="dgm-label" text-anchor="end">CloudWatch</text><rect x="180" y="318" width="21.125" height="34" rx="0" class="dgm-bar-2"/><text x="209.125" y="339" class="dgm-num" text-anchor="start">$2,600</text><text x="168" y="383" class="dgm-label" text-anchor="end">Other</text><rect x="180" y="362" width="170.625" height="34" rx="0" class="dgm-bar-2"/><text x="358.625" y="383" class="dgm-num" text-anchor="start">$21,000</text>
</svg>