<svg viewBox="0 0 660 470" role="img" xmlns="http://www.w3.org/2000/svg">
<defs><marker id="dgmArrow" markerWidth="8" markerHeight="8" refX="6" refY="3" orient="auto"><path d="M0,0 L6,3 L0,6" class="dgm-arrow"/></marker></defs>
<rect x="0" y="0" width="660" height="470" rx="0" class="dgm-paper"/><text x="0" y="30" class="dgm-title" text-anchor="start">GCP monthly spend by service</text><text x="168" y="75" class="dgm-label" text-anchor="end">Compute Engine (GKE)</text><rect x="180" y="54" width="390" height="34" rx="0" class="dgm-bar"/><text x="578" y="75" class="dgm-num" text-anchor="start">$42,300</text><text x="168" y="119" class="dgm-label" text-anchor="end">BigQuery</text><rect x="180" y="98" width="178.86524822695034" height="34" rx="0" class="dgm-bar-2"/><text x="366.86524822695037" y="119" class="dgm-num" text-anchor="start">$19,400</text><text x="168" y="163" class="dgm-label" text-anchor="end">Other long tail</text><rect x="180" y="142" width="197.12978723404257" height="34" rx="0" class="dgm-bar-2"/><text x="385.12978723404257" y="163" class="dgm-num" text-anchor="start">$21,381</text><text x="168" y="207" class="dgm-label" text-anchor="end">Cloud Storage</text><rect x="180" y="186" width="103.26241134751773" height="34" rx="0" class="dgm-bar-2"/><text x="291.26241134751774" y="207" class="dgm-num" text-anchor="start">$11,200</text><text x="168" y="251" class="dgm-label" text-anchor="end">Network egress</text><rect x="180" y="230" width="90.35460992907801" height="34" rx="0" class="dgm-bar-2"/><text x="278.35460992907804" y="251" class="dgm-num" text-anchor="start">$9,800</text><text x="168" y="295" class="dgm-label" text-anchor="end">Cloud SQL</text><rect x="180" y="274" width="68.22695035460993" height="34" rx="0" class="dgm-bar-2"/><text x="256.2269503546099" y="295" class="dgm-num" text-anchor="start">$7,400</text><text x="168" y="339" class="dgm-label" text-anchor="end">Cloud Logging</text><rect x="180" y="318" width="47.94326241134752" height="34" rx="0" class="dgm-bar-2"/><text x="235.94326241134752" y="339" class="dgm-num" text-anchor="start">$5,200</text><text x="168" y="383" class="dgm-label" text-anchor="end">Cloud Monitoring</text><rect x="180" y="362" width="28.581560283687942" height="34" rx="0" class="dgm-bar-2"/><text x="216.58156028368793" y="383" class="dgm-num" text-anchor="start">$3,100</text><text x="168" y="427" class="dgm-label" text-anchor="end">GKE control plane</text><rect x="180" y="406" width="2.019148936170213" height="34" rx="0" class="dgm-bar-2"/><text x="190.0191489361702" y="427" class="dgm-num" text-anchor="start">$219</text>
</svg>