<svg viewBox="0 0 660 346" role="img" xmlns="http://www.w3.org/2000/svg">
<defs><marker id="dgmArrow" markerWidth="8" markerHeight="8" refX="6" refY="3" orient="auto"><path d="M0,0 L6,3 L0,6" class="dgm-arrow"/></marker></defs>
<rect x="0" y="0" width="660" height="346" rx="0" class="dgm-paper"/><text x="0" y="30" class="dgm-title" text-anchor="start">Drilling from estate to resource</text><rect x="90" y="56" width="480" height="48" rx="0" class="dgm-card"/><text x="108" y="76" class="dgm-title" text-anchor="start">1. Cloud account</text><text x="108" y="94" class="dgm-label-sm" text-anchor="start">All connected providers</text><line x1="330" y1="104" x2="330" y2="128" class="dgm-arrow" marker-end="url(#dgmArrow)"/><rect x="90" y="130" width="480" height="48" rx="0" class="dgm-card"/><text x="108" y="150" class="dgm-title" text-anchor="start">2. Region</text><text x="108" y="168" class="dgm-label-sm" text-anchor="start">Where the spend sits</text><line x1="330" y1="178" x2="330" y2="202" class="dgm-arrow" marker-end="url(#dgmArrow)"/><rect x="90" y="204" width="480" height="48" rx="0" class="dgm-card"/><text x="108" y="224" class="dgm-title" text-anchor="start">3. Service</text><text x="108" y="242" class="dgm-label-sm" text-anchor="start">EC2, RDS, GKE, …</text><line x1="330" y1="252" x2="330" y2="276" class="dgm-arrow" marker-end="url(#dgmArrow)"/><rect x="90" y="278" width="480" height="48" rx="0" class="dgm-card-blue"/><text x="108" y="298" class="dgm-title" text-anchor="start">4. Resource</text><text x="108" y="316" class="dgm-label-sm" text-anchor="start">The individual thing you act on</text>
</svg>