<svg viewBox="0 0 660 255" role="img" xmlns="http://www.w3.org/2000/svg">
<defs><marker id="dgmArrow" markerWidth="8" markerHeight="8" refX="6" refY="3" orient="auto"><path d="M0,0 L6,3 L0,6" class="dgm-arrow"/></marker></defs>
<rect x="0" y="0" width="660" height="255" rx="0" class="dgm-paper"/><text x="0" y="30" class="dgm-title" text-anchor="start">The grid exposes a weekend gap</text><text x="60" y="50" class="dgm-label-sm" text-anchor="middle">0h</text><text x="205" y="50" class="dgm-label-sm" text-anchor="middle">6h</text><text x="350" y="50" class="dgm-label-sm" text-anchor="middle">12h</text><text x="495" y="50" class="dgm-label-sm" text-anchor="middle">18h</text><text x="640" y="50" class="dgm-label-sm" text-anchor="middle">24h</text><text x="52" y="71" class="dgm-label-sm" text-anchor="end">Mon</text><rect x="60.5" y="56" width="23.166666666666668" height="22" rx="0" class="dgm-grid"/><rect x="84.66666666666667" y="56" width="23.166666666666668" height="22" rx="0" class="dgm-grid"/><rect x="108.83333333333334" y="56" width="23.166666666666668" height="22" rx="0" class="dgm-grid"/><rect x="133" y="56" width="23.166666666666668" height="22" rx="0" class="dgm-grid"/><rect x="157.16666666666669" y="56" width="23.166666666666668" height="22" rx="0" class="dgm-grid"/><rect x="181.33333333333334" y="56" width="23.166666666666668" height="22" rx="0" class="dgm-grid"/><rect x="205.5" y="56" width="23.166666666666668" height="22" rx="0" class="dgm-grid"/><rect x="229.66666666666669" y="56" width="23.166666666666668" height="22" rx="0" class="dgm-grid"/><rect x="253.83333333333334" y="56" width="23.166666666666668" height="22" rx="0" class="dgm-bar"/><rect x="278" y="56" width="23.166666666666668" height="22" rx="0" class="dgm-bar"/><rect x="302.1666666666667" y="56" width="23.166666666666668" height="22" rx="0" class="dgm-bar"/><rect x="326.33333333333337" y="56" width="23.166666666666668" height="22" rx="0" class="dgm-bar"/><rect x="350.5" y="56" width="23.166666666666668" height="22" rx="0" class="dgm-bar"/><rect x="374.6666666666667" y="56" width="23.166666666666668" height="22" rx="0" class="dgm-bar"/><rect x="398.83333333333337" y="56" width="23.166666666666668" height="22" rx="0" class="dgm-bar"/><rect x="423" y="56" width="23.166666666666668" height="22" rx="0" class="dgm-bar"/><rect x="447.1666666666667" y="56" width="23.166666666666668" height="22" rx="0" class="dgm-bar"/><rect x="471.33333333333337" y="56" width="23.166666666666668" height="22" rx="0" class="dgm-bar"/><rect x="495.5" y="56" width="23.166666666666668" height="22" rx="0" class="dgm-bar"/><rect x="519.6666666666667" y="56" width="23.166666666666668" height="22" rx="0" class="dgm-grid"/><rect x="543.8333333333334" y="56" width="23.166666666666668" height="22" rx="0" class="dgm-grid"/><rect x="568" y="56" width="23.166666666666668" height="22" rx="0" class="dgm-grid"/><rect x="592.1666666666667" y="56" width="23.166666666666668" height="22" rx="0" class="dgm-grid"/><rect x="616.3333333333334" y="56" width="23.166666666666668" height="22" rx="0" class="dgm-grid"/><text x="52" y="96" class="dgm-label-sm" text-anchor="end">Tue</text><rect x="60.5" y="81" width="23.166666666666668" height="22" rx="0" class="dgm-grid"/><rect x="84.66666666666667" y="81" width="23.166666666666668" height="22" rx="0" class="dgm-grid"/><rect x="108.83333333333334" y="81" width="23.166666666666668" height="22" rx="0" class="dgm-grid"/><rect x="133" y="81" width="23.166666666666668" height="22" rx="0" class="dgm-grid"/><rect x="157.16666666666669" y="81" width="23.166666666666668" height="22" rx="0" class="dgm-grid"/><rect x="181.33333333333334" y="81" width="23.166666666666668" height="22" rx="0" class="dgm-grid"/><rect x="205.5" y="81" width="23.166666666666668" height="22" rx="0" class="dgm-grid"/><rect x="229.66666666666669" y="81" width="23.166666666666668" height="22" rx="0" class="dgm-grid"/><rect x="253.83333333333334" y="81" width="23.166666666666668" height="22" rx="0" class="dgm-bar"/><rect x="278" y="81" width="23.166666666666668" height="22" rx="0" class="dgm-bar"/><rect x="302.1666666666667" y="81" width="23.166666666666668" height="22" rx="0" class="dgm-bar"/><rect x="326.33333333333337" y="81" width="23.166666666666668" height="22" rx="0" class="dgm-bar"/><rect x="350.5" y="81" width="23.166666666666668" height="22" rx="0" class="dgm-bar"/><rect x="374.6666666666667" y="81" width="23.166666666666668" height="22" rx="0" class="dgm-bar"/><rect x="398.83333333333337" y="81" width="23.166666666666668" height="22" rx="0" class="dgm-bar"/><rect x="423" y="81" width="23.166666666666668" height="22" rx="0" class="dgm-bar"/><rect x="447.1666666666667" y="81" width="23.166666666666668" height="22" rx="0" class="dgm-bar"/><rect x="471.33333333333337" y="81" width="23.166666666666668" height="22" rx="0" class="dgm-bar"/><rect x="495.5" y="81" width="23.166666666666668" height="22" rx="0" class="dgm-bar"/><rect x="519.6666666666667" y="81" width="23.166666666666668" height="22" rx="0" class="dgm-grid"/><rect x="543.8333333333334" y="81" width="23.166666666666668" height="22" rx="0" class="dgm-grid"/><rect x="568" y="81" width="23.166666666666668" height="22" rx="0" class="dgm-grid"/><rect x="592.1666666666667" y="81" width="23.166666666666668" height="22" rx="0" class="dgm-grid"/><rect x="616.3333333333334" y="81" width="23.166666666666668" height="22" rx="0" class="dgm-grid"/><text x="52" y="121" class="dgm-label-sm" text-anchor="end">Wed</text><rect x="60.5" y="106" width="23.166666666666668" height="22" rx="0" class="dgm-grid"/><rect x="84.66666666666667" y="106" width="23.166666666666668" height="22" rx="0" class="dgm-grid"/><rect x="108.83333333333334" y="106" width="23.166666666666668" height="22" rx="0" class="dgm-grid"/><rect x="133" y="106" width="23.166666666666668" height="22" rx="0" class="dgm-grid"/><rect x="157.16666666666669" y="106" width="23.166666666666668" height="22" rx="0" class="dgm-grid"/><rect x="181.33333333333334" y="106" width="23.166666666666668" height="22" rx="0" class="dgm-grid"/><rect x="205.5" y="106" width="23.166666666666668" height="22" rx="0" class="dgm-grid"/><rect x="229.66666666666669" y="106" width="23.166666666666668" height="22" rx="0" class="dgm-grid"/><rect x="253.83333333333334" y="106" width="23.166666666666668" height="22" rx="0" class="dgm-bar"/><rect x="278" y="106" width="23.166666666666668" height="22" rx="0" class="dgm-bar"/><rect x="302.1666666666667" y="106" width="23.166666666666668" height="22" rx="0" class="dgm-bar"/><rect x="326.33333333333337" y="106" width="23.166666666666668" height="22" rx="0" class="dgm-bar"/><rect x="350.5" y="106" width="23.166666666666668" height="22" rx="0" class="dgm-bar"/><rect x="374.6666666666667" y="106" width="23.166666666666668" height="22" rx="0" class="dgm-bar"/><rect x="398.83333333333337" y="106" width="23.166666666666668" height="22" rx="0" class="dgm-bar"/><rect x="423" y="106" width="23.166666666666668" height="22" rx="0" class="dgm-bar"/><rect x="447.1666666666667" y="106" width="23.166666666666668" height="22" rx="0" class="dgm-bar"/><rect x="471.33333333333337" y="106" width="23.166666666666668" height="22" rx="0" class="dgm-bar"/><rect x="495.5" y="106" width="23.166666666666668" height="22" rx="0" class="dgm-bar"/><rect x="519.6666666666667" y="106" width="23.166666666666668" height="22" rx="0" class="dgm-grid"/><rect x="543.8333333333334" y="106" width="23.166666666666668" height="22" rx="0" class="dgm-grid"/><rect x="568" y="106" width="23.166666666666668" height="22" rx="0" class="dgm-grid"/><rect x="592.1666666666667" y="106" width="23.166666666666668" height="22" rx="0" class="dgm-grid"/><rect x="616.3333333333334" y="106" width="23.166666666666668" height="22" rx="0" class="dgm-grid"/><text x="52" y="146" class="dgm-label-sm" text-anchor="end">Thu</text><rect x="60.5" y="131" width="23.166666666666668" height="22" rx="0" class="dgm-grid"/><rect x="84.66666666666667" y="131" width="23.166666666666668" height="22" rx="0" class="dgm-grid"/><rect x="108.83333333333334" y="131" width="23.166666666666668" height="22" rx="0" class="dgm-grid"/><rect x="133" y="131" width="23.166666666666668" height="22" rx="0" class="dgm-grid"/><rect x="157.16666666666669" y="131" width="23.166666666666668" height="22" rx="0" class="dgm-grid"/><rect x="181.33333333333334" y="131" width="23.166666666666668" height="22" rx="0" class="dgm-grid"/><rect x="205.5" y="131" width="23.166666666666668" height="22" rx="0" class="dgm-grid"/><rect x="229.66666666666669" y="131" width="23.166666666666668" height="22" rx="0" class="dgm-grid"/><rect x="253.83333333333334" y="131" width="23.166666666666668" height="22" rx="0" class="dgm-bar"/><rect x="278" y="131" width="23.166666666666668" height="22" rx="0" class="dgm-bar"/><rect x="302.1666666666667" y="131" width="23.166666666666668" height="22" rx="0" class="dgm-bar"/><rect x="326.33333333333337" y="131" width="23.166666666666668" height="22" rx="0" class="dgm-bar"/><rect x="350.5" y="131" width="23.166666666666668" height="22" rx="0" class="dgm-bar"/><rect x="374.6666666666667" y="131" width="23.166666666666668" height="22" rx="0" class="dgm-bar"/><rect x="398.83333333333337" y="131" width="23.166666666666668" height="22" rx="0" class="dgm-bar"/><rect x="423" y="131" width="23.166666666666668" height="22" rx="0" class="dgm-bar"/><rect x="447.1666666666667" y="131" width="23.166666666666668" height="22" rx="0" class="dgm-bar"/><rect x="471.33333333333337" y="131" width="23.166666666666668" height="22" rx="0" class="dgm-bar"/><rect x="495.5" y="131" width="23.166666666666668" height="22" rx="0" class="dgm-bar"/><rect x="519.6666666666667" y="131" width="23.166666666666668" height="22" rx="0" class="dgm-grid"/><rect x="543.8333333333334" y="131" width="23.166666666666668" height="22" rx="0" class="dgm-grid"/><rect x="568" y="131" width="23.166666666666668" height="22" rx="0" class="dgm-grid"/><rect x="592.1666666666667" y="131" width="23.166666666666668" height="22" rx="0" class="dgm-grid"/><rect x="616.3333333333334" y="131" width="23.166666666666668" height="22" rx="0" class="dgm-grid"/><text x="52" y="171" class="dgm-label-sm" text-anchor="end">Fri</text><rect x="60.5" y="156" width="23.166666666666668" height="22" rx="0" class="dgm-grid"/><rect x="84.66666666666667" y="156" width="23.166666666666668" height="22" rx="0" class="dgm-grid"/><rect x="108.83333333333334" y="156" width="23.166666666666668" height="22" rx="0" class="dgm-grid"/><rect x="133" y="156" width="23.166666666666668" height="22" rx="0" class="dgm-grid"/><rect x="157.16666666666669" y="156" width="23.166666666666668" height="22" rx="0" class="dgm-grid"/><rect x="181.33333333333334" y="156" width="23.166666666666668" height="22" rx="0" class="dgm-grid"/><rect x="205.5" y="156" width="23.166666666666668" height="22" rx="0" class="dgm-grid"/><rect x="229.66666666666669" y="156" width="23.166666666666668" height="22" rx="0" class="dgm-grid"/><rect x="253.83333333333334" y="156" width="23.166666666666668" height="22" rx="0" class="dgm-bar"/><rect x="278" y="156" width="23.166666666666668" height="22" rx="0" class="dgm-bar"/><rect x="302.1666666666667" y="156" width="23.166666666666668" height="22" rx="0" class="dgm-bar"/><rect x="326.33333333333337" y="156" width="23.166666666666668" height="22" rx="0" class="dgm-bar"/><rect x="350.5" y="156" width="23.166666666666668" height="22" rx="0" class="dgm-bar"/><rect x="374.6666666666667" y="156" width="23.166666666666668" height="22" rx="0" class="dgm-bar"/><rect x="398.83333333333337" y="156" width="23.166666666666668" height="22" rx="0" class="dgm-bar"/><rect x="423" y="156" width="23.166666666666668" height="22" rx="0" class="dgm-bar"/><rect x="447.1666666666667" y="156" width="23.166666666666668" height="22" rx="0" class="dgm-bar"/><rect x="471.33333333333337" y="156" width="23.166666666666668" height="22" rx="0" class="dgm-bar"/><rect x="495.5" y="156" width="23.166666666666668" height="22" rx="0" class="dgm-bar"/><rect x="519.6666666666667" y="156" width="23.166666666666668" height="22" rx="0" class="dgm-grid"/><rect x="543.8333333333334" y="156" width="23.166666666666668" height="22" rx="0" class="dgm-grid"/><rect x="568" y="156" width="23.166666666666668" height="22" rx="0" class="dgm-grid"/><rect x="592.1666666666667" y="156" width="23.166666666666668" height="22" rx="0" class="dgm-grid"/><rect x="616.3333333333334" y="156" width="23.166666666666668" height="22" rx="0" class="dgm-grid"/><text x="52" y="196" class="dgm-label-sm" text-anchor="end">Sat</text><rect x="60.5" y="181" width="23.166666666666668" height="22" rx="0" class="dgm-grid"/><rect x="84.66666666666667" y="181" width="23.166666666666668" height="22" rx="0" class="dgm-grid"/><rect x="108.83333333333334" y="181" width="23.166666666666668" height="22" rx="0" class="dgm-grid"/><rect x="133" y="181" width="23.166666666666668" height="22" rx="0" class="dgm-grid"/><rect x="157.16666666666669" y="181" width="23.166666666666668" height="22" rx="0" class="dgm-grid"/><rect x="181.33333333333334" y="181" width="23.166666666666668" height="22" rx="0" class="dgm-grid"/><rect x="205.5" y="181" width="23.166666666666668" height="22" rx="0" class="dgm-grid"/><rect x="229.66666666666669" y="181" width="23.166666666666668" height="22" rx="0" class="dgm-grid"/><rect x="253.83333333333334" y="181" width="23.166666666666668" height="22" rx="0" class="dgm-grid"/><rect x="278" y="181" width="23.166666666666668" height="22" rx="0" class="dgm-grid"/><rect x="302.1666666666667" y="181" width="23.166666666666668" height="22" rx="0" class="dgm-bar"/><rect x="326.33333333333337" y="181" width="23.166666666666668" height="22" rx="0" class="dgm-bar"/><rect x="350.5" y="181" width="23.166666666666668" height="22" rx="0" class="dgm-bar"/><rect x="374.6666666666667" y="181" width="23.166666666666668" height="22" rx="0" class="dgm-bar"/><rect x="398.83333333333337" y="181" width="23.166666666666668" height="22" rx="0" class="dgm-bar"/><rect x="423" y="181" width="23.166666666666668" height="22" rx="0" class="dgm-bar"/><rect x="447.1666666666667" y="181" width="23.166666666666668" height="22" rx="0" class="dgm-grid"/><rect x="471.33333333333337" y="181" width="23.166666666666668" height="22" rx="0" class="dgm-grid"/><rect x="495.5" y="181" width="23.166666666666668" height="22" rx="0" class="dgm-grid"/><rect x="519.6666666666667" y="181" width="23.166666666666668" height="22" rx="0" class="dgm-grid"/><rect x="543.8333333333334" y="181" width="23.166666666666668" height="22" rx="0" class="dgm-grid"/><rect x="568" y="181" width="23.166666666666668" height="22" rx="0" class="dgm-grid"/><rect x="592.1666666666667" y="181" width="23.166666666666668" height="22" rx="0" class="dgm-grid"/><rect x="616.3333333333334" y="181" width="23.166666666666668" height="22" rx="0" class="dgm-grid"/><text x="52" y="221" class="dgm-label-sm" text-anchor="end">Sun</text><rect x="60.5" y="206" width="23.166666666666668" height="22" rx="0" class="dgm-grid"/><rect x="84.66666666666667" y="206" width="23.166666666666668" height="22" rx="0" class="dgm-grid"/><rect x="108.83333333333334" y="206" width="23.166666666666668" height="22" rx="0" class="dgm-grid"/><rect x="133" y="206" width="23.166666666666668" height="22" rx="0" class="dgm-grid"/><rect x="157.16666666666669" y="206" width="23.166666666666668" height="22" rx="0" class="dgm-grid"/><rect x="181.33333333333334" y="206" width="23.166666666666668" height="22" rx="0" class="dgm-grid"/><rect x="205.5" y="206" width="23.166666666666668" height="22" rx="0" class="dgm-grid"/><rect x="229.66666666666669" y="206" width="23.166666666666668" height="22" rx="0" class="dgm-grid"/><rect x="253.83333333333334" y="206" width="23.166666666666668" height="22" rx="0" class="dgm-grid"/><rect x="278" y="206" width="23.166666666666668" height="22" rx="0" class="dgm-grid"/><rect x="302.1666666666667" y="206" width="23.166666666666668" height="22" rx="0" class="dgm-grid"/><rect x="326.33333333333337" y="206" width="23.166666666666668" height="22" rx="0" class="dgm-grid"/><rect x="350.5" y="206" width="23.166666666666668" height="22" rx="0" class="dgm-grid"/><rect x="374.6666666666667" y="206" width="23.166666666666668" height="22" rx="0" class="dgm-grid"/><rect x="398.83333333333337" y="206" width="23.166666666666668" height="22" rx="0" class="dgm-grid"/><rect x="423" y="206" width="23.166666666666668" height="22" rx="0" class="dgm-grid"/><rect x="447.1666666666667" y="206" width="23.166666666666668" height="22" rx="0" class="dgm-grid"/><rect x="471.33333333333337" y="206" width="23.166666666666668" height="22" rx="0" class="dgm-grid"/><rect x="495.5" y="206" width="23.166666666666668" height="22" rx="0" class="dgm-grid"/><rect x="519.6666666666667" y="206" width="23.166666666666668" height="22" rx="0" class="dgm-grid"/><rect x="543.8333333333334" y="206" width="23.166666666666668" height="22" rx="0" class="dgm-grid"/><rect x="568" y="206" width="23.166666666666668" height="22" rx="0" class="dgm-grid"/><rect x="592.1666666666667" y="206" width="23.166666666666668" height="22" rx="0" class="dgm-grid"/><rect x="616.3333333333334" y="206" width="23.166666666666668" height="22" rx="0" class="dgm-grid"/>
</svg>